<svg xmlns="http://www.w3.org/2000/svg" width="780" height="420" viewBox="0 0 780 420">
<rect width="100%" height="100%" fill="white"/>
<text x="76" y="30" font-family="Arial" font-size="20" font-weight="700" fill="#111827">RepoShield Secure Utility by AgentDojo Suite</text>
<line x1="76" y1="346" x2="744" y2="346" stroke="#374151" stroke-width="1"/>
<line x1="76" y1="54" x2="76" y2="346" stroke="#374151" stroke-width="1"/>
<line x1="76" y1="346.0" x2="744" y2="346.0" stroke="#e5e7eb" stroke-width="1"/>
<text x="66" y="350.0" text-anchor="end" font-family="Arial" font-size="12" fill="#4b5563">0%</text>
<line x1="76" y1="287.6" x2="744" y2="287.6" stroke="#e5e7eb" stroke-width="1"/>
<text x="66" y="291.6" text-anchor="end" font-family="Arial" font-size="12" fill="#4b5563">20%</text>
<line x1="76" y1="229.2" x2="744" y2="229.2" stroke="#e5e7eb" stroke-width="1"/>
<text x="66" y="233.2" text-anchor="end" font-family="Arial" font-size="12" fill="#4b5563">40%</text>
<line x1="76" y1="170.8" x2="744" y2="170.8" stroke="#e5e7eb" stroke-width="1"/>
<text x="66" y="174.8" text-anchor="end" font-family="Arial" font-size="12" fill="#4b5563">60%</text>
<line x1="76" y1="112.4" x2="744" y2="112.4" stroke="#e5e7eb" stroke-width="1"/>
<text x="66" y="116.4" text-anchor="end" font-family="Arial" font-size="12" fill="#4b5563">80%</text>
<line x1="76" y1="54.0" x2="744" y2="54.0" stroke="#e5e7eb" stroke-width="1"/>
<text x="66" y="58.0" text-anchor="end" font-family="Arial" font-size="12" fill="#4b5563">100%</text>
<text x="76.0" y="386" text-anchor="middle" font-family="Arial" font-size="13" fill="#111827">banking</text>
<text x="298.7" y="386" text-anchor="middle" font-family="Arial" font-size="13" fill="#111827">slack</text>
<text x="521.3" y="386" text-anchor="middle" font-family="Arial" font-size="13" fill="#111827">travel</text>
<text x="744.0" y="386" text-anchor="middle" font-family="Arial" font-size="13" fill="#111827">workspace</text>
<path d="M 76.0 100.6 L 298.7 254.2 L 521.3 133.2 L 744.0 107.2" fill="none" stroke="#1f77b4" stroke-width="3"/>
<circle cx="76.0" cy="100.6" r="4.5" fill="#1f77b4"/>
<text x="76.0" y="90.6" text-anchor="middle" font-family="Arial" font-size="12" fill="#1f77b4">84.03</text>
<circle cx="298.7" cy="254.2" r="4.5" fill="#1f77b4"/>
<text x="298.7" y="244.2" text-anchor="middle" font-family="Arial" font-size="12" fill="#1f77b4">31.43</text>
<circle cx="521.3" cy="133.2" r="4.5" fill="#1f77b4"/>
<text x="521.3" y="123.2" text-anchor="middle" font-family="Arial" font-size="12" fill="#1f77b4">72.86</text>
<circle cx="744.0" cy="107.2" r="4.5" fill="#1f77b4"/>
<text x="744.0" y="97.2" text-anchor="middle" font-family="Arial" font-size="12" fill="#1f77b4">81.79</text>
<path d="M 76.0 181.8 L 298.7 282.1 L 521.3 266.8 L 744.0 117.1" fill="none" stroke="#d62728" stroke-width="3"/>
<circle cx="76.0" cy="181.8" r="4.5" fill="#d62728"/>
<text x="76.0" y="171.8" text-anchor="middle" font-family="Arial" font-size="12" fill="#d62728">56.25</text>
<circle cx="298.7" cy="282.1" r="4.5" fill="#d62728"/>
<text x="298.7" y="272.1" text-anchor="middle" font-family="Arial" font-size="12" fill="#d62728">21.90</text>
<circle cx="521.3" cy="266.8" r="4.5" fill="#d62728"/>
<text x="521.3" y="256.8" text-anchor="middle" font-family="Arial" font-size="12" fill="#d62728">27.14</text>
<circle cx="744.0" cy="117.1" r="4.5" fill="#d62728"/>
<text x="744.0" y="107.1" text-anchor="middle" font-family="Arial" font-size="12" fill="#d62728">78.39</text>
<line x1="76" y1="406" x2="102" y2="406" stroke="#1f77b4" stroke-width="3"/>
<text x="110" y="410" font-family="Arial" font-size="12" fill="#111827">deepseek-v4-flash</text>
<line x1="266" y1="406" x2="292" y2="406" stroke="#d62728" stroke-width="3"/>
<text x="300" y="410" font-family="Arial" font-size="12" fill="#111827">qwen-plus</text>
</svg>
