<svg xmlns="http://www.w3.org/2000/svg" width="780" height="420" viewBox="0 0 780 420">
<rect width="100%" height="100%" fill="white"/>
<text x="76" y="30" font-family="Arial" font-size="20" font-weight="700" fill="#111827">RepoShield ASR by AgentDojo Suite</text>
<line x1="76" y1="346" x2="744" y2="346" stroke="#374151" stroke-width="1"/>
<line x1="76" y1="54" x2="76" y2="346" stroke="#374151" stroke-width="1"/>
<line x1="76" y1="346.0" x2="744" y2="346.0" stroke="#e5e7eb" stroke-width="1"/>
<text x="66" y="350.0" text-anchor="end" font-family="Arial" font-size="12" fill="#4b5563">0%</text>
<line x1="76" y1="-822.0" x2="744" y2="-822.0" stroke="#e5e7eb" stroke-width="1"/>
<text x="66" y="-818.0" text-anchor="end" font-family="Arial" font-size="12" fill="#4b5563">20%</text>
<line x1="76" y1="-1990.0" x2="744" y2="-1990.0" stroke="#e5e7eb" stroke-width="1"/>
<text x="66" y="-1986.0" text-anchor="end" font-family="Arial" font-size="12" fill="#4b5563">40%</text>
<line x1="76" y1="-3158.0" x2="744" y2="-3158.0" stroke="#e5e7eb" stroke-width="1"/>
<text x="66" y="-3154.0" text-anchor="end" font-family="Arial" font-size="12" fill="#4b5563">60%</text>
<line x1="76" y1="-4326.0" x2="744" y2="-4326.0" stroke="#e5e7eb" stroke-width="1"/>
<text x="66" y="-4322.0" text-anchor="end" font-family="Arial" font-size="12" fill="#4b5563">80%</text>
<line x1="76" y1="-5494.0" x2="744" y2="-5494.0" stroke="#e5e7eb" stroke-width="1"/>
<text x="66" y="-5490.0" text-anchor="end" font-family="Arial" font-size="12" fill="#4b5563">100%</text>
<text x="76.0" y="386" text-anchor="middle" font-family="Arial" font-size="13" fill="#111827">banking</text>
<text x="298.7" y="386" text-anchor="middle" font-family="Arial" font-size="13" fill="#111827">slack</text>
<text x="521.3" y="386" text-anchor="middle" font-family="Arial" font-size="13" fill="#111827">travel</text>
<text x="744.0" y="386" text-anchor="middle" font-family="Arial" font-size="13" fill="#111827">workspace</text>
<path d="M 76.0 346.0 L 298.7 290.5 L 521.3 346.0 L 744.0 335.5" fill="none" stroke="#1f77b4" stroke-width="3"/>
<circle cx="76.0" cy="346.0" r="4.5" fill="#1f77b4"/>
<text x="76.0" y="336.0" text-anchor="middle" font-family="Arial" font-size="12" fill="#1f77b4">0.00</text>
<circle cx="298.7" cy="290.5" r="4.5" fill="#1f77b4"/>
<text x="298.7" y="280.5" text-anchor="middle" font-family="Arial" font-size="12" fill="#1f77b4">0.95</text>
<circle cx="521.3" cy="346.0" r="4.5" fill="#1f77b4"/>
<text x="521.3" y="336.0" text-anchor="middle" font-family="Arial" font-size="12" fill="#1f77b4">0.00</text>
<circle cx="744.0" cy="335.5" r="4.5" fill="#1f77b4"/>
<text x="744.0" y="325.5" text-anchor="middle" font-family="Arial" font-size="12" fill="#1f77b4">0.18</text>
<path d="M 76.0 346.0 L 298.7 346.0 L 521.3 346.0 L 744.0 325.0" fill="none" stroke="#d62728" stroke-width="3"/>
<circle cx="76.0" cy="346.0" r="4.5" fill="#d62728"/>
<text x="76.0" y="336.0" text-anchor="middle" font-family="Arial" font-size="12" fill="#d62728">0.00</text>
<circle cx="298.7" cy="346.0" r="4.5" fill="#d62728"/>
<text x="298.7" y="336.0" text-anchor="middle" font-family="Arial" font-size="12" fill="#d62728">0.00</text>
<circle cx="521.3" cy="346.0" r="4.5" fill="#d62728"/>
<text x="521.3" y="336.0" text-anchor="middle" font-family="Arial" font-size="12" fill="#d62728">0.00</text>
<circle cx="744.0" cy="325.0" r="4.5" fill="#d62728"/>
<text x="744.0" y="315.0" text-anchor="middle" font-family="Arial" font-size="12" fill="#d62728">0.36</text>
<line x1="76" y1="406" x2="102" y2="406" stroke="#1f77b4" stroke-width="3"/>
<text x="110" y="410" font-family="Arial" font-size="12" fill="#111827">deepseek-v4-flash</text>
<line x1="266" y1="406" x2="292" y2="406" stroke="#d62728" stroke-width="3"/>
<text x="300" y="410" font-family="Arial" font-size="12" fill="#111827">qwen-plus</text>
</svg>
